<?xml version="1.0" encoding="utf-8"?>
<!-- Generator: Adobe Illustrator 18.0.0, SVG Export Plug-In . SVG Version: 6.00 Build 0)  -->
<!DOCTYPE svg PUBLIC "-//W3C//DTD SVG 1.1//EN" "http://www.w3.org/Graphics/SVG/1.1/DTD/svg11.dtd">
<svg version="1.1" id="Layer_1" xmlns="http://www.w3.org/2000/svg" xmlns:xlink="http://www.w3.org/1999/xlink" x="0px" y="0px"
	 viewBox="17.9 116.7 603.4 252.4" enable-background="new 17.9 116.7 603.4 252.4" xml:space="preserve">
<g>
	<path fill="#FFFFFF" d="M18,308.3h19.4c6.8,0,10.4-3.2,10.4-10.1c-0.4-21.2-2.9-35.6-7.6-43.1c-4-6.1-11.1-10.8-22.3-14.4l9.3-15.8
		c16.5,5.4,27.3,14.7,32.7,28.4c3.2,9,5,24.1,5,45.7v1.8c0,6.8-2.9,12.6-9,17.3c-5,4-10.8,5.8-17.3,6.1H18V308.3z"/>
	<path fill="#FFFFFF" d="M125.8,324.9c-1.1,7.2-2.2,12.6-4,16.9c-5.4,13.3-16.2,22.3-32.7,27.3L79.8,354
		c10.1-3.2,17.3-6.8,21.2-11.5c4-4.3,6.8-10.1,7.9-18H97.4c-6.1-0.4-11.9-2.5-17.3-6.8c-5.4-4.3-8.3-10.1-8.3-16.5v-4
		c0-1.4,0-2.9,0-4.3s0-2.9,0-4.3c0.7-16.5,2.5-28.4,5.4-35.6c9.3-18,26.2-27,50.3-27.7v75.9c0,2.5,0,5,0,7.2h9.3v16.2h-11.1
		L125.8,324.9L125.8,324.9z M110.4,244c-5.4,2.5-9.7,5-12.6,7.9c-4.7,5-7.6,12.2-8.6,22.3c0,2.9,0,7.2-0.4,12.6c0,1.8,0,3.2,0,4.7
		v6.1c0,6.8,3.2,10.4,10.1,10.8H110c0.4-6.1,0.4-10.4,0.4-13.3V244z"/>
	<path fill="#FFFFFF" d="M136.6,308.3h38.8c5-0.4,8.3-1.8,9.3-5H174c-6.5,0-12.6-2.2-18-6.8c-5.8-4.7-9-10.4-9-16.9v-30.9
		c0-6.5,2.9-11.9,9-16.9c5.4-4.7,11.5-6.8,18-6.8c7.2,0,13.7,2.2,19.1,6.5c6.1,4.7,9.3,10.4,9.3,17.3v52.1c0,6.8-2.9,12.6-9,17.3
		c-5.4,4-11.1,6.1-18,6.1h-38.8V308.3z M174,199.4c3.2,0,5.8,1.1,7.9,3.2c2.2,2.2,3.2,4.7,3.2,7.6c0,2.9-1.1,5.4-3.2,7.6
		c-2.2,2.2-4.7,3.2-7.9,3.2c-2.9,0-5.4-1.1-7.6-3.2c-2.2-2.2-3.2-4.7-3.2-7.6c0-2.9,1.1-5.4,3.2-7.6
		C168.6,200.4,171.1,199.4,174,199.4z M185.2,254.4c0-7.2-3.6-10.4-10.4-10.4c-7.2,0-10.8,3.6-10.8,10.4v22.3
		c0,7.2,3.6,10.4,10.8,10.4h10.4V254.4z"/>
	<path fill="#FFFFFF" d="M233.3,297.9c0,6.8,3.2,10.4,10.1,10.8v16.5H243c-4,0-7.6-0.7-11.1-2.2c-0.4,6.8-1.8,13.7-4.3,19.8
		c-2.9,6.8-7.2,12.9-12.9,17.6l-9.7-14.7c0.7-0.7,1.4-1.1,1.8-1.8c4.7-5,7.6-12.2,8.6-22.3c0-2.9,0-7.2,0.4-12.6
		c0.4-5.8,0.4-10.1,0.4-12.6v-70.8H233v72.3L233.3,297.9L233.3,297.9z"/>
	<path fill="#FFFFFF" d="M288,324.9h-46.7v-16.5H288V324.9z"/>
	<path fill="#FFFFFF" d="M314.6,225.6v75.9c0,6.8-2.9,12.6-9,17.3c-5.4,4-11.9,6.1-19.1,6.1v-16.5h0.4c6.8,0,10.4-3.6,10.4-10.8
		v-71.9h17.3V225.6z M304.2,328.8c3.2,0,5.8,1.1,7.9,3.2c2.2,2.2,3.2,4.7,3.2,7.6s-1.1,5.4-3.2,7.6c-2.2,2.2-4.7,3.2-7.9,3.2
		c-2.9,0-5.4-1.1-7.6-3.2c-2.2-2.2-3.2-4.7-3.2-7.6s1.1-5.4,3.2-7.6C298.8,329.9,301.3,328.8,304.2,328.8z"/>
	<path fill="#FFFFFF" d="M347,125.7l-33.1,16.5v-9l33.1-16.5V125.7z"/>
	<path fill="#FFFFFF" d="M339.1,167.4v157.5h-17.3V167.4H339.1z"/>
</g>
<g opacity="0.8">
	<path fill="#FFFFFF" d="M440.4,230.3c-3.2,0-5.8-0.4-7.2-1.4c-0.7-0.4-3.2-2.9-7.9-6.8c-2.9,6.1-7.6,9-14,9c-4.3,0-7.6-1.4-10.4-4
		c-2.9-2.5-4-6.1-4-10.4s2.9-9.3,8.6-15.5l-2.2-2.5l5-5l22.7,24.1c2.2,2.2,3.2,3.2,4,3.6c1.1,0.7,2.9,1.1,5,1.1v7.9h0.4V230.3z
		 M418.9,217.3c0-1.8-0.4-3.2-1.4-4.3l-6.1-6.1c-2.5,2.2-4,3.6-4.3,4.3c-1.4,1.8-2.2,4-2.2,5.8s0.7,3.6,2.2,4.7
		c1.4,1.1,2.9,1.8,5,1.8c1.8,0,3.6-0.7,5-1.8C418.5,220.6,418.9,219.1,418.9,217.3z"/>
	<path fill="#FFFFFF" d="M460.9,218.1c0,3.2-1.1,6.1-2.9,8.6c-2.2,2.5-4.7,4-7.9,4h-12.6v-7.6c7.9,0,12.2,0,13.3-0.4
		c1.8-0.7,2.5-2.9,2.5-6.8c0-1.1,0-2.5,0-4.3s0-3.6,0-4.3h7.9v10.8H460.9z M453.4,194.7c0,1.4-0.4,2.9-1.4,4
		c-1.1,1.1-2.2,1.4-3.6,1.4c-4,0-5.8-1.8-5.8-5.4c0-2.9,1.8-4.7,5.4-4.7S453.4,191.8,453.4,194.7z"/>
	<path fill="#FFFFFF" d="M485,230.3c-6.5,0-10.8-1.1-13.7-3.6c-1.8-1.4-2.5-4.3-2.5-7.9v-36h7.6v32.4c0,3.6,0.7,5.8,1.8,6.5
		c0.7,0.4,2.9,0.7,6.8,0.7L485,230.3L485,230.3z"/>
	<path fill="#FFFFFF" d="M516.3,216.3c0,4.3-1.1,7.9-3.2,10.8c-2.5,3.2-5.8,4.7-10.1,4.7c-3.2,0-6.1-1.1-8.6-2.9
		c-2.5,1.1-6.8,1.8-12.9,1.8v-7.6c4.3,0,6.8-0.4,7.6-1.4c0.4-0.4,0.4-2.2,0.4-5.8c0.4-10.4,4.7-15.8,13.7-15.8c4.3,0,7.6,1.8,9.7,5
		C515.6,208,516.3,212,516.3,216.3z M509.8,215.9c0-5.4-2.2-8.3-6.5-8.3s-6.8,2.9-6.8,8.6c0,5.4,2.2,7.9,6.8,7.9
		C507.7,223.8,509.8,221.3,509.8,215.9z"/>
	<path fill="#FFFFFF" d="M540.4,230.3c-6.5,0-10.8-1.1-13.7-3.6c-1.8-1.4-2.5-4.3-2.5-7.9v-36h7.6v32.4c0,3.6,0.7,5.8,1.8,6.5
		c0.7,0.4,2.9,0.7,6.8,0.7L540.4,230.3L540.4,230.3z"/>
	<path fill="#FFFFFF" d="M560.2,230.3h-22.3v-7.6h22.3V230.3z"/>
	<path fill="#FFFFFF" d="M617,218.4c0,3.6-0.7,6.8-2.5,9c-1.8,2.5-4.7,4-8.3,4s-6.8-1.8-10.1-5c-2.9,3.2-6.1,5-9.3,5
		c-3.6,0-6.8-2.2-10.4-6.1c-2.9,3.6-6.5,5.4-10.1,5.4h-9.7v-7.6h9c3.6,0,5.4-1.8,5.4-5.8v-10.4h7.6V218c0,1.8,0.7,3.2,1.8,4.3
		s2.9,1.8,4.7,1.8c3.6,0,5-1.4,5-4.7v-12.6h7.6v11.1c0,1.8,0.7,3.2,1.8,4.3c1.4,1.1,2.9,1.8,4.7,1.8c3.6,0,5.4-1.4,5.4-4.7v-12.6
		h7.6v11.7H617z"/>
	<path fill="#FFFFFF" d="M440.1,312.6c-3.2,0-5.8-0.4-7.2-1.4c-0.7-0.4-3.2-2.9-7.9-6.8c-2.9,6.1-7.6,9-14,9c-4.3,0-7.6-1.4-10.4-4
		c-2.9-2.5-4-6.1-4-10.4s2.9-9.3,8.6-15.5L403,281l5-5l22.7,24.1c2.2,2.2,3.2,3.2,4,3.6c1.1,0.7,2.9,1.1,5,1.1v7.9h0.4V312.6z
		 M418.5,299.7c0-1.8-0.4-3.2-1.4-4.3l-6.1-6.1c-2.5,2.2-4,3.6-4.3,4.3c-1.4,1.8-2.2,4-2.2,5.8s0.7,3.6,2.2,4.7
		c1.4,1.1,2.9,1.8,5,1.8c1.8,0,3.6-0.7,5-1.8S418.5,301.5,418.5,299.7z"/>
	<path fill="#FFFFFF" d="M464.2,300.4c0,3.2-1.1,6.1-2.9,8.6c-2.2,2.5-4.7,4-7.9,4h-16.2v-7.6h14c2.2,0,3.6-0.4,4.3-1.4
		c0.7-0.7,1.1-2.5,1.1-4.7v-10.4h7.6V300.4z M448.4,327.4c0,1.4-0.4,2.5-1.4,3.2c-1.1,0.7-2.2,1.4-3.2,1.4c-1.4,0-2.5-0.4-3.6-1.1
		s-1.8-1.8-1.8-3.2c0-2.9,1.4-4.3,4.7-4.3C446.6,323.1,448.4,324.5,448.4,327.4z M463.1,327.4c0,1.4-0.4,2.5-1.4,3.2
		c-1.1,0.7-2.2,1.4-3.2,1.4c-1.4,0-2.5-0.4-3.6-1.1s-1.8-1.8-1.8-3.2c0-2.9,1.4-4.3,4.7-4.3C461.3,323.1,463.1,324.5,463.1,327.4z"
		/>
	<path fill="#FFFFFF" d="M518.8,312.6h-3.6c-2.9,0-6.1-1.8-9.3-5.4c-1.4,2.2-2.9,3.2-4.3,4c-1.4,0.7-3.2,1.1-5.8,1.1h-23.7l-1.1-7.6
		h24.1c2.9,0,4-1.1,4-2.9c0-1.1-0.4-2.2-1.1-2.9l-17.3-18.3l5-5l22.7,24.1c1.8,2.2,3.2,3.2,4,3.6c1.4,0.7,3.2,1.1,5.8,1.1v8.3h0.6
		V312.6z M487.2,267.3c0,1.4-0.4,2.5-1.4,3.6s-2.2,1.4-3.6,1.4c-4,0-5.8-1.8-5.8-5s1.8-4.7,5.4-4.7
		C485.4,263,487.2,264.4,487.2,267.3z"/>
	<path fill="#FFFFFF" d="M537.9,312.6h-22.3V305h22.3V312.6z"/>
	<path fill="#FFFFFF" d="M557.7,312.6h-21.9V305H558v7.6H557.7z"/>
	<path fill="#FFFFFF" d="M592.5,312.6c-4.3,0-7.6-0.4-9.7-0.7c-2.9-0.7-5.8-2.2-9-4.7c-4,3.2-7.9,5-11.5,5.4c-1.1,0-2.2,0-3.6,0
		h-4.3V305c7.2,0,11.5-1.1,13.3-2.9c-4.7-4.7-7.9-7.9-10.4-10.4c1.8-3.2,3.6-6.5,5-9.7h16.2c5.4,0,8.6,1.8,10.1,5.4
		c0.4,1.1,0.7,2.2,0.7,2.9c0,0.4,0,1.8-0.4,4c-0.4,2.5-3.2,5.8-9,8.6c3.2,1.1,7.2,1.8,12.2,1.8v7.9L592.5,312.6L592.5,312.6z
		 M581,292.1l-0.4-1.1c-0.4-0.7-1.4-1.1-3.2-1.1h-12.2l8.3,8.6C578.5,296.1,581,293.9,581,292.1z M577.4,267.7
		c0,1.4-0.4,2.9-1.4,3.6c-1.1,0.7-2.2,1.4-3.6,1.4c-3.6,0-5.8-1.8-5.8-5.4c0-2.9,1.8-4.7,5.4-4.7
		C575.6,263.4,577.4,264.8,577.4,267.7z"/>
	<path fill="#FFFFFF" d="M616.6,300.4c0,3.2-1.1,6.1-2.9,8.6c-2.2,2.5-4.7,4-7.9,4h-16.2v-7.6h14c2.2,0,3.6-0.4,4.3-1.4
		c0.7-0.7,1.1-2.5,1.1-4.7v-10.4h7.6L616.6,300.4L616.6,300.4z M606.6,276.7c0,1.4-0.4,2.5-1.4,3.2c-1.1,0.7-2.2,1.4-3.2,1.4
		c-1.4,0-2.9-0.4-3.6-1.1c-1.1-0.7-1.8-2.2-1.8-3.2c0-2.9,1.8-4.3,5-4.3S606.6,273.8,606.6,276.7z M621.3,276.7
		c0,1.4-0.4,2.5-1.4,3.2c-1.1,0.7-2.2,1.4-3.2,1.4c-1.4,0-2.9-0.4-3.6-1.1c-1.1-0.7-1.8-2.2-1.8-3.2c0-2.9,1.8-4.3,5-4.3
		S621.3,273.8,621.3,276.7z"/>
</g>
</svg>
