<?xml version="1.0" encoding="utf-8"?>
<!-- Generator: Adobe Illustrator 18.0.0, SVG Export Plug-In . SVG Version: 6.00 Build 0)  -->
<!DOCTYPE svg PUBLIC "-//W3C//DTD SVG 1.1//EN" "http://www.w3.org/Graphics/SVG/1.1/DTD/svg11.dtd">
<svg version="1.1" id="Layer_1" xmlns="http://www.w3.org/2000/svg" xmlns:xlink="http://www.w3.org/1999/xlink" x="0px" y="0px"
	 viewBox="0 0 178 77.2" enable-background="new 0 0 178 77.2" xml:space="preserve">
<g>
	<path fill="#CCCCCC" d="M5,57.6h5.4c1.9,0,2.9-0.9,2.9-2.8c-0.1-5.9-0.8-9.9-2.1-12c-1.1-1.7-3.1-3-6.2-4l2.6-4.4
		c4.6,1.5,7.6,4.1,9.1,7.9c0.9,2.5,1.4,6.7,1.4,12.7v0.5c0,1.9-0.8,3.5-2.5,4.8c-1.4,1.1-3,1.6-4.8,1.7H5V57.6z"/>
	<path fill="#CCCCCC" d="M35,62.2c-0.3,2-0.6,3.5-1.1,4.7c-1.5,3.7-4.5,6.2-9.1,7.6l-2.6-4.2c2.8-0.9,4.8-1.9,5.9-3.2
		c1.1-1.2,1.9-2.8,2.2-5h-3.2c-1.7-0.1-3.3-0.7-4.8-1.9C20.8,59,20,57.4,20,55.6v-1.1c0-0.4,0-0.8,0-1.2c0-0.4,0-0.8,0-1.2
		c0.2-4.6,0.7-7.9,1.5-9.9c2.6-5,7.3-7.5,14-7.7v21.1c0,0.7,0,1.4,0,2h2.6v4.5H35z M30.7,39.7c-1.5,0.7-2.7,1.4-3.5,2.2
		c-1.3,1.4-2.1,3.4-2.4,6.2c0,0.8,0,2-0.1,3.5c0,0.5,0,0.9,0,1.3v1.7c0,1.9,0.9,2.9,2.8,3h3.1c0.1-1.7,0.1-2.9,0.1-3.7V39.7z"/>
	<path fill="#CCCCCC" d="M38,57.6h10.8c1.4-0.1,2.3-0.5,2.6-1.4h-3c-1.8,0-3.5-0.6-5-1.9c-1.6-1.3-2.5-2.9-2.5-4.7v-8.6
		c0-1.8,0.8-3.3,2.5-4.7c1.5-1.3,3.2-1.9,5-1.9c2,0,3.8,0.6,5.3,1.8c1.7,1.3,2.6,2.9,2.6,4.8v14.5c0,1.9-0.8,3.5-2.5,4.8
		c-1.5,1.1-3.1,1.7-5,1.7H38V57.6z M48.4,27.3c0.9,0,1.6,0.3,2.2,0.9c0.6,0.6,0.9,1.3,0.9,2.1s-0.3,1.5-0.9,2.1
		c-0.6,0.6-1.3,0.9-2.2,0.9c-0.8,0-1.5-0.3-2.1-0.9c-0.6-0.6-0.9-1.3-0.9-2.1s0.3-1.5,0.9-2.1C46.9,27.6,47.6,27.3,48.4,27.3z
		 M51.5,42.6c0-2-1-2.9-2.9-2.9c-2,0-3,1-3,2.9v6.2c0,2,1,2.9,3,2.9h2.9V42.6z"/>
	<path fill="#CCCCCC" d="M64.9,54.7c0,1.9,0.9,2.9,2.8,3v4.6h-0.1c-1.1,0-2.1-0.2-3.1-0.6c-0.1,1.9-0.5,3.8-1.2,5.5
		c-0.8,1.9-2,3.6-3.6,4.9l-2.7-4.1c0.2-0.2,0.4-0.3,0.5-0.5c1.3-1.4,2.1-3.4,2.4-6.2c0-0.8,0-2,0.1-3.5c0.1-1.6,0.1-2.8,0.1-3.5
		V34.6h4.7V54.7z"/>
	<path fill="#CCCCCC" d="M80.1,62.2h-13v-4.6h13V62.2z"/>
	<path fill="#CCCCCC" d="M87.5,34.6v21.1c0,1.9-0.8,3.5-2.5,4.8c-1.5,1.1-3.3,1.7-5.3,1.7v-4.6h0.1c1.9,0,2.9-1,2.9-3V34.6H87.5z
		 M84.6,63.3c0.9,0,1.6,0.3,2.2,0.9c0.6,0.6,0.9,1.3,0.9,2.1s-0.3,1.5-0.9,2.1c-0.6,0.6-1.3,0.9-2.2,0.9c-0.8,0-1.5-0.3-2.1-0.9
		c-0.6-0.6-0.9-1.3-0.9-2.1s0.3-1.5,0.9-2.1C83.1,63.6,83.8,63.3,84.6,63.3z"/>
	<path fill="#CCCCCC" d="M96.5,6.8l-9.2,4.6V8.9l9.2-4.6V6.8z"/>
	<path fill="#CCCCCC" d="M94.3,18.4v43.8h-4.8V18.4H94.3z"/>
</g>
<g opacity="0.8">
	<path fill="#CCCCCC" d="M122.5,35.9c-0.9,0-1.6-0.1-2-0.4c-0.2-0.1-0.9-0.8-2.2-1.9c-0.8,1.7-2.1,2.5-3.9,2.5
		c-1.2,0-2.1-0.4-2.9-1.1s-1.1-1.7-1.1-2.9c0-1.2,0.8-2.6,2.4-4.3l-0.6-0.7l1.4-1.4l6.3,6.7c0.6,0.6,0.9,0.9,1.1,1
		c0.3,0.2,0.8,0.3,1.4,0.3V35.9z M116.5,32.3c0-0.5-0.1-0.9-0.4-1.2l-1.7-1.7c-0.7,0.6-1.1,1-1.2,1.2c-0.4,0.5-0.6,1.1-0.6,1.6
		c0,0.5,0.2,1,0.6,1.3s0.8,0.5,1.4,0.5c0.5,0,1-0.2,1.4-0.5S116.5,32.8,116.5,32.3z"/>
	<path fill="#CCCCCC" d="M128.2,32.5c0,0.9-0.3,1.7-0.8,2.4c-0.6,0.7-1.3,1.1-2.2,1.1h-3.5v-2.1c2.2,0,3.4,0,3.7-0.1
		c0.5-0.2,0.7-0.8,0.7-1.9c0-0.3,0-0.7,0-1.2s0-1,0-1.2h2.2V32.5z M126.1,26c0,0.4-0.1,0.8-0.4,1.1s-0.6,0.4-1,0.4
		c-1.1,0-1.6-0.5-1.6-1.5c0-0.8,0.5-1.3,1.5-1.3C125.6,24.7,126.1,25.2,126.1,26z"/>
	<path fill="#CCCCCC" d="M134.9,35.9c-1.8,0-3-0.3-3.8-1c-0.5-0.4-0.7-1.2-0.7-2.2v-10h2.1v9c0,1,0.2,1.6,0.5,1.8
		c0.2,0.1,0.8,0.2,1.9,0.2V35.9z"/>
	<path fill="#CCCCCC" d="M143.6,32c0,1.2-0.3,2.2-0.9,3c-0.7,0.9-1.6,1.3-2.8,1.3c-0.9,0-1.7-0.3-2.4-0.8c-0.7,0.3-1.9,0.5-3.6,0.5
		v-2.1c1.2,0,1.9-0.1,2.1-0.4c0.1-0.1,0.1-0.6,0.1-1.6c0.1-2.9,1.3-4.4,3.8-4.4c1.2,0,2.1,0.5,2.7,1.4
		C143.4,29.7,143.6,30.8,143.6,32z M141.8,31.9c0-1.5-0.6-2.3-1.8-2.3c-1.2,0-1.9,0.8-1.9,2.4c0,1.5,0.6,2.2,1.9,2.2
		C141.2,34.1,141.8,33.4,141.8,31.9z"/>
	<path fill="#CCCCCC" d="M150.3,35.9c-1.8,0-3-0.3-3.8-1c-0.5-0.4-0.7-1.2-0.7-2.2v-10h2.1v9c0,1,0.2,1.6,0.5,1.8
		c0.2,0.1,0.8,0.2,1.9,0.2V35.9z"/>
	<path fill="#CCCCCC" d="M155.8,35.9h-6.2v-2.1h6.2V35.9z"/>
	<path fill="#CCCCCC" d="M171.6,32.6c0,1-0.2,1.9-0.7,2.5c-0.5,0.7-1.3,1.1-2.3,1.1c-1,0-1.9-0.5-2.8-1.4c-0.8,0.9-1.7,1.4-2.6,1.4
		c-1,0-1.9-0.6-2.9-1.7c-0.8,1-1.8,1.5-2.8,1.5h-2.7v-2.1h2.5c1,0,1.5-0.5,1.5-1.6v-2.9h2.1v3.1c0,0.5,0.2,0.9,0.5,1.2
		s0.8,0.5,1.3,0.5c1,0,1.4-0.4,1.4-1.3v-3.5h2.1v3.1c0,0.5,0.2,0.9,0.5,1.2c0.4,0.3,0.8,0.5,1.3,0.5c1,0,1.5-0.4,1.5-1.3v-3.5h2.1
		V32.6z"/>
	<path fill="#CCCCCC" d="M122.4,58.8c-0.9,0-1.6-0.1-2-0.4c-0.2-0.1-0.9-0.8-2.2-1.9c-0.8,1.7-2.1,2.5-3.9,2.5
		c-1.2,0-2.1-0.4-2.9-1.1s-1.1-1.7-1.1-2.9c0-1.2,0.8-2.6,2.4-4.3l-0.6-0.7l1.4-1.4l6.3,6.7c0.6,0.6,0.9,0.9,1.1,1
		c0.3,0.2,0.8,0.3,1.4,0.3V58.8z M116.4,55.2c0-0.5-0.1-0.9-0.4-1.2l-1.7-1.7c-0.7,0.6-1.1,1-1.2,1.2c-0.4,0.5-0.6,1.1-0.6,1.6
		c0,0.5,0.2,1,0.6,1.3s0.8,0.5,1.4,0.5c0.5,0,1-0.2,1.4-0.5S116.4,55.7,116.4,55.2z"/>
	<path fill="#CCCCCC" d="M129.1,55.4c0,0.9-0.3,1.7-0.8,2.4c-0.6,0.7-1.3,1.1-2.2,1.1h-4.5v-2.1h3.9c0.6,0,1-0.1,1.2-0.4
		c0.2-0.2,0.3-0.7,0.3-1.3v-2.9h2.1V55.4z M124.7,62.9c0,0.4-0.1,0.7-0.4,0.9s-0.6,0.4-0.9,0.4c-0.4,0-0.7-0.1-1-0.3
		c-0.3-0.2-0.5-0.5-0.5-0.9c0-0.8,0.4-1.2,1.3-1.2C124.2,61.7,124.7,62.1,124.7,62.9z M128.8,62.9c0,0.4-0.1,0.7-0.4,0.9
		s-0.6,0.4-0.9,0.4c-0.4,0-0.7-0.1-1-0.3c-0.3-0.2-0.5-0.5-0.5-0.9c0-0.8,0.4-1.2,1.3-1.2C128.3,61.7,128.8,62.1,128.8,62.9z"/>
	<path fill="#CCCCCC" d="M144.3,58.8h-1c-0.8,0-1.7-0.5-2.6-1.5c-0.4,0.6-0.8,0.9-1.2,1.1s-0.9,0.3-1.6,0.3h-6.6l-0.3-2.1h6.7
		c0.8,0,1.1-0.3,1.1-0.8c0-0.3-0.1-0.6-0.3-0.8l-4.8-5.1l1.4-1.4l6.3,6.7c0.5,0.6,0.9,0.9,1.1,1c0.4,0.2,0.9,0.3,1.6,0.3V58.8z
		 M135.5,46.2c0,0.4-0.1,0.7-0.4,1s-0.6,0.4-1,0.4c-1.1,0-1.6-0.5-1.6-1.4c0-0.9,0.5-1.3,1.5-1.3C135,45,135.5,45.4,135.5,46.2z"/>
	<path fill="#CCCCCC" d="M149.6,58.8h-6.2v-2.1h6.2V58.8z"/>
	<path fill="#CCCCCC" d="M155.1,58.8H149v-2.1h6.2V58.8z"/>
	<path fill="#CCCCCC" d="M164.8,58.8c-1.2,0-2.1-0.1-2.7-0.2c-0.8-0.2-1.6-0.6-2.5-1.3c-1.1,0.9-2.2,1.4-3.2,1.5c-0.3,0-0.6,0-1,0
		h-1.2l0-2.1c2,0,3.2-0.3,3.7-0.8c-1.3-1.3-2.2-2.2-2.9-2.9c0.5-0.9,1-1.8,1.4-2.7h4.5c1.5,0,2.4,0.5,2.8,1.5
		c0.1,0.3,0.2,0.6,0.2,0.8c0,0.1,0,0.5-0.1,1.1c-0.1,0.7-0.9,1.6-2.5,2.4c0.9,0.3,2,0.5,3.4,0.5V58.8z M161.6,53.1l-0.1-0.3
		c-0.1-0.2-0.4-0.3-0.9-0.3h-3.4l2.3,2.4C160.9,54.2,161.6,53.6,161.6,53.1z M160.6,46.3c0,0.4-0.1,0.8-0.4,1s-0.6,0.4-1,0.4
		c-1,0-1.6-0.5-1.6-1.5c0-0.8,0.5-1.3,1.5-1.3C160.1,45.1,160.6,45.5,160.6,46.3z"/>
	<path fill="#CCCCCC" d="M171.5,55.4c0,0.9-0.3,1.7-0.8,2.4c-0.6,0.7-1.3,1.1-2.2,1.1H164v-2.1h3.9c0.6,0,1-0.1,1.2-0.4
		c0.2-0.2,0.3-0.7,0.3-1.3v-2.9h2.1V55.4z M168.7,48.8c0,0.4-0.1,0.7-0.4,0.9s-0.6,0.4-0.9,0.4c-0.4,0-0.8-0.1-1-0.3
		c-0.3-0.2-0.5-0.6-0.5-0.9c0-0.8,0.5-1.2,1.4-1.2C168.2,47.7,168.7,48,168.7,48.8z M172.8,48.8c0,0.4-0.1,0.7-0.4,0.9
		s-0.6,0.4-0.9,0.4c-0.4,0-0.8-0.1-1-0.3c-0.3-0.2-0.5-0.6-0.5-0.9c0-0.8,0.5-1.2,1.4-1.2C172.3,47.7,172.8,48,172.8,48.8z"/>
</g>
</svg>
